<?xml version="1.0" encoding="UTF-8" standalone="no"?>
<!-- Created with Inkscape (http://www.inkscape.org/) -->

<svg
   width="140.91708mm"
   height="131.72409mm"
   viewBox="0 0 140.91708 131.72409"
   version="1.1"
   id="svg1"
   xml:space="preserve"
   inkscape:version="1.3 (0e150ed6c4, 2023-07-21)"
   sodipodi:docname="australia.svg"
   inkscape:export-filename="australia-col.pdf"
   inkscape:export-xdpi="96"
   inkscape:export-ydpi="96"
   xmlns:inkscape="http://www.inkscape.org/namespaces/inkscape"
   xmlns:sodipodi="http://sodipodi.sourceforge.net/DTD/sodipodi-0.dtd"
   xmlns="http://www.w3.org/2000/svg"
   xmlns:svg="http://www.w3.org/2000/svg"><sodipodi:namedview
     id="namedview1"
     pagecolor="#ffffff"
     bordercolor="#000000"
     borderopacity="0.25"
     inkscape:showpageshadow="2"
     inkscape:pageopacity="0.0"
     inkscape:pagecheckerboard="0"
     inkscape:deskcolor="#d1d1d1"
     inkscape:document-units="mm"
     inkscape:zoom="1.4142136"
     inkscape:cx="309.00566"
     inkscape:cy="293.80287"
     inkscape:window-width="1920"
     inkscape:window-height="1019"
     inkscape:window-x="0"
     inkscape:window-y="0"
     inkscape:window-maximized="1"
     inkscape:current-layer="layer1"><sodipodi:guide
       position="-41.968045,331.58936"
       orientation="0,793.70079"
       id="guide16"
       inkscape:locked="false" /><sodipodi:guide
       position="168.03195,331.58936"
       orientation="1122.5197,0"
       id="guide17"
       inkscape:locked="false" /><sodipodi:guide
       position="168.03195,34.589357"
       orientation="0,-793.70079"
       id="guide18"
       inkscape:locked="false" /><sodipodi:guide
       position="-41.968045,34.589357"
       orientation="-1122.5197,0"
       id="guide19"
       inkscape:locked="false" /></sodipodi:namedview><defs
     id="defs1" /><g
     inkscape:label="Layer 1"
     inkscape:groupmode="layer"
     id="layer1"
     transform="translate(-41.968045,-34.589357)"><path
       style="display:inline;fill:none;stroke:#fff880;stroke-width:1;stroke-dasharray:none;stroke-opacity:1"
       d="m 76.476624,56.906103 c -0.711584,-0.455128 -0.759994,2.323712 -0.266354,2.510479 0.559963,0.278313 1.077946,0.116567 1.375008,0.545676 0.357853,0.711499 0.278914,1.564117 -1.168548,2.112301 -0.887862,0.150707 -2.015626,-3.842803 -2.731566,-4.043547 -0.585579,-0.23023 -2.25082,1.468026 -2.889086,5.211762 -0.182589,0.866835 1.265321,1.472108 1.220331,2.496761 -0.0059,0.673204 -1.932348,1.081119 -2.238919,1.651718 -0.253516,0.391458 -0.498112,1.757566 -0.74186,2.650225 -0.829034,1.453636 -1.556341,2.374942 -4.26158,3.633462 -1.273448,0.498221 -3.330587,0.261744 -4.808621,0.421361 -0.270269,0.154592 0.328794,1.535471 0.04561,1.686371 -0.828207,0.666461 -2.36479,-0.668095 -3.07908,0.04331 -0.376768,0.306386 -0.390857,0.896394 -0.586531,1.14592 -0.531861,0.645297 -1.754268,-0.06397 -3.640199,0.456426 -1.226367,0.359667 -2.955191,2.981284 -4.432787,4.471926 -0.973602,0.858728 -2.221975,0.636898 -2.698144,1.040742 -0.467407,0.503323 -0.04724,1.81473 -0.256423,3.170475 -0.373269,0.362293 -0.833607,0.221192 -1.160841,0.07408 -1.086768,-0.44968 -0.665072,-3.082794 -1.235258,-3.006314 -0.672306,-0.0094 -0.932629,2.576613 -0.777224,3.864919 0.240046,0.689097 0.529984,0.823907 0.802503,1.152247 1.078908,1.976729 -1.154778,4.709778 0.246417,6.641269 0.639957,2.201513 2.834817,3.406675 3.795747,3.813453 0.28284,0.361265 0.505764,1.502945 0.36323,2.077625 -0.971107,0.35649 -3.143243,-2.797419 -3.623966,-2.218996 -0.574924,0.602475 1.680247,2.609966 2.284899,3.108126 0.462259,0.89218 -1.163616,0.10004 -1.680241,0.56026 -0.339048,0.36305 3.727123,6.78366 6.510628,9.90649 0.245794,1.07148 -0.07844,2.18337 0.403381,3.21444 1.413497,1.90765 2.993581,3.73835 3.704511,5.97055 0.111342,2.33969 0.711315,6.13975 0.334026,7.01907 -0.276639,0.37022 -1.095994,-0.3521 -1.472777,-0.0727 -0.457689,0.87261 -0.10021,1.95972 -0.09331,2.95456 l 2.783119,0.63537 1.881235,1.78666 5.372452,-0.16504 c 0,0 2.899165,-3.02738 3.454447,-3.37242 0.369513,-0.2296 2.001882,0.10431 1.813504,0.16805 0.731454,-0.50953 0.379843,-1.4173 0.468377,-2.16323 0.527133,-0.60133 3.93623,-0.93515 6.047191,-1.19193 0.977551,0.10517 1.743959,0.3242 2.975836,0.61431 3.114147,-0.52212 3.29388,-0.71008 4.715801,-1.21778 0.745699,-1.52589 0.863156,-2.13446 0.898304,-3.56924 2.814792,-1.21451 3.78899,-1.52143 6.213469,-3.38013 3.8288,-0.27434 6.193198,-0.95333 9.049982,-2.35776 5.229743,-0.66834 10.491393,-1.04175 16.064813,1.46636 2.80709,3.43359 4.4008,9.76951 5.90778,10.72127 1.07478,-0.17974 6.15559,-9.10714 7.10983,-8.557 1.70009,0.72969 -3.24952,9.51769 -2.94513,9.79908 0.72366,0.66897 2.98078,-2.85268 4.21446,-2.65218 1.07713,-0.0246 1.17448,2.32159 0.58238,2.88313 -0.79896,0.75772 -6.26482,1.61612 -6.38056,2.42153 0.15139,0.9661 3.39316,0.99876 4.20461,0.83634 0.83282,-0.16669 2.3521,-1.81388 3.33973,-1.44638 1.77543,0.90155 2.02157,1.76675 2.49045,3.14028 0,0 0.28826,4.18225 0.43645,4.42198 1.91742,3.10206 5.57624,4.04226 5.57624,4.04226 0,0 3.44108,1.36844 5.23196,1.61718 1.20481,0.16734 2.65226,-1.44826 4.18116,-1.32795 0.97829,0.077 5.05567,3.26891 6.1692,1.96965 5.44135,-3.43582 6.30953,-1.84283 9.24459,-2.52265 2.66943,-1.31632 2.40899,-8.12905 5.84167,-12.4439 0.91258,-1.20986 4.79271,-6.59467 6.30117,-7.45465 0.53082,-0.30262 3.13675,-5.59828 3.45893,-7.88654 0.29701,-2.10953 2.76269,-9.99263 2.26087,-12.89696 -0.17262,-2.47596 -0.38073,-4.630742 -0.63237,-6.391645 -1.51572,-3.488905 -3.78024,-4.46004 -6.03835,-6.73858 0.59308,-3.613286 -0.91309,-5.905345 -1.84432,-6.138836 -0.87055,0.60029 -1.72049,1.04347 -2.33262,-0.326352 0.13657,-3.74268 -0.40028,-6.906004 -2.05804,-9.104967 -2.37167,-1.306517 -4.88602,-3.109192 -7.42148,-4.985271 -0.96547,-1.762176 -2.70895,-14.611546 -3.28448,-17.058328 -0.61431,-2.611668 -3.50385,-3.551436 -5.20514,-2.717175 -1.71652,0.323084 -0.81438,-14.040899 -4.12626,-14.899843 -1.34053,-0.347669 -4.80052,16.373071 -4.84929,18.030628 -0.014,0.477374 -0.51932,6.387131 -0.69519,6.387131 -1.37307,1.602362 -3.35238,4.135413 -4.34509,3.895131 -1.63379,-0.294123 -12.07018,-6.657794 -17.59456,-12.420482 -0.53287,0.142277 0.83198,-3.952095 1.51425,-4.771495 1.68937,-2.028905 4.09896,-4.515363 3.94641,-5.162631 -1.70801,-1.568467 -15.09795,-3.261468 -16.7114,-2.962826 -1.55416,0.287668 -6.98959,2.646956 -8.22514,3.469044 -1.77671,1.788786 -3.621404,4.960794 -4.814377,8.114961 -0.624592,0.627477 -2.71859,1.808115 -3.694032,1.112325 -0.110065,-0.07851 -3.700209,-3.536221 -5.877841,-4.009979 -1.073697,0.464098 -6.090651,4.631181 -6.468055,4.978226 -0.676782,0.622341 -1.680116,5.525167 -2.269699,5.485279 -0.897623,0.837372 -1.991918,0.674504 -3.180222,0.03353 z"
       id="path2"
       sodipodi:nodetypes="cccccccccccccccccccccccccccccccccccccscccccccccccscscsccscsscccsscccccccscsscccscsccscsccc" /><path
       style="display:inline;fill:none;stroke:#fff880;stroke-width:1;stroke-dasharray:none;stroke-opacity:1"
       d="M 99.430275,116.96258 96.406737,50.289764"
       id="path3"
       sodipodi:nodetypes="cc" /><path
       style="display:inline;fill:none;stroke:#fff880;stroke-width:1;stroke-dasharray:none;stroke-opacity:1"
       d="m 98.477759,94.557182 41.618391,0.844119 -2.81116,47.417789"
       id="path4" /><path
       style="display:inline;fill:none;stroke:#fff880;stroke-width:1;stroke-dasharray:none;stroke-opacity:1"
       d="m 130.27484,95.200175 1.17754,-37.045743"
       id="path5"
       sodipodi:nodetypes="cc" /><path
       style="display:inline;fill:none;stroke:#fff880;stroke-width:1;stroke-dasharray:none;stroke-opacity:1"
       d="m 139.43871,106.81793 42.69487,1.87994"
       id="path6" /><path
       style="display:inline;fill:none;stroke:#fff880;stroke-width:1;stroke-dasharray:none;stroke-opacity:1"
       d="m 138.27105,126.24787 27.6421,16.52016"
       id="path7" /><path
       style="display:inline;fill:none;stroke:#fff880;stroke-width:1;stroke-dasharray:none;stroke-opacity:1"
       d="m 164.97756,133.1914 c -1.21026,-0.28267 -1.55578,0.46328 -1.55578,0.46328 -0.55394,0.72688 -0.98986,1.03302 -0.65348,2.18748 0.19178,0.65818 1.49796,0.84824 1.51689,0.8038 0.72227,-0.91575 1.53796,-2.03336 0.69237,-3.45456 z"
       id="path8"
       sodipodi:nodetypes="ccscc" /><path
       style="display:inline;fill:none;stroke:#fff880;stroke-width:1;stroke-dasharray:none;stroke-opacity:1"
       d="m 148.36373,153.65101 c -1.44702,1.02989 -1.01231,2.95605 -0.97548,2.72261 1.54793,3.24658 2.38309,7.17769 5.02347,9.78989 2.21815,-0.68174 3.00894,-1.4784 4.47419,-2.85563 1.35157,-1.49162 3.30212,-6.14393 2.3233,-7.74004 -1.01179,-1.64987 -8.75553,-0.91642 -10.84548,-1.91683 z"
       id="path9"
       sodipodi:nodetypes="ccccsc" /><path
       style="display:inline;fill:#b5adff;fill-opacity:1;stroke:#b5adff;stroke-width:0.280684;stroke-dasharray:none;stroke-opacity:1"
       d="m 460.17414,384.63825 c -2.38768,-0.85797 -3.30419,-2.09546 -3.33907,-4.5085 -0.0178,-1.23101 0.1393,-1.70092 1.00388,-3.00308 1.78292,-2.68528 2.98934,-3.76296 4.45921,-3.98338 1.71184,-0.25671 2.32619,0.11189 2.87603,1.72559 0.55754,1.6363 0.56758,2.95546 0.0361,4.7451 -0.46954,1.58109 -2.88116,5.25892 -3.51234,5.35648 -0.23049,0.0356 -0.91621,-0.11387 -1.52383,-0.33221 z"
       id="path24"
       transform="matrix(0.26458333,0,0,0.26458333,41.968045,34.589357)" /><path
       style="fill:#b5adff;fill-opacity:1;stroke:#b5adff;stroke-width:0.353553"
       d="m 58.716998,370.12233 -3.508395,-3.31069 -4.91313,-1.11476 c -2.702219,-0.61311 -5.021367,-1.22298 -5.15366,-1.35526 -0.32325,-0.32321 -0.309235,-9.59538 0.015,-9.92217 0.140545,-0.14164 1.211235,0.0106 2.379312,0.33836 4.396627,1.23363 4.556854,0.29904 2.994678,-17.46788 -0.884205,-10.0562 -0.959048,-10.52732 -2.089412,-13.15175 -1.708585,-3.96691 -3.907811,-7.49286 -8.828571,-14.15456 -4.842701,-6.55602 -4.669657,-6.11781 -5.093347,-12.89832 -0.237455,-3.80011 -0.365884,-4.40732 -1.130228,-5.34378 C 29.622704,287.12681 24.8227,280.8027 21.93896,276.65553 16.090614,268.24487 9.7227182,257.59387 9.7227182,256.22252 c 0,-0.48049 0.5124628,-0.59281 3.0935918,-0.67804 l 3.093593,-0.10216 0.114347,-0.99792 c 0.09855,-0.86002 -0.41651,-1.52543 -3.726942,-4.81494 -3.5352827,-3.51294 -5.887069,-6.72563 -5.3306636,-7.28204 0.4748179,-0.47482 1.644043,0.279 4.7139376,3.03917 4.526383,4.0697 6.019972,5.04968 7.743045,5.08039 l 1.436023,0.0256 v -2.82843 c 0,-3.9702 -0.77317,-5.87167 -2.747505,-6.75696 -2.763524,-1.23918 -6.432621,-3.8918 -8.5392058,-6.17353 -1.563913,-1.69394 -2.5810416,-3.29866 -4.0161307,-6.33624 -1.7880715,-3.78472 -1.9224207,-4.25232 -1.9306166,-6.71944 -0.00491,-1.47923 0.4029861,-4.72396 0.9225383,-7.33855 1.4541976,-7.31807 1.2249922,-10.13506 -1.0457916,-12.85301 -2.2670896,-2.71353 -2.3832916,-3.14752 -2.1632457,-8.07915 0.1881875,-4.21762 0.8907507,-7.7182 1.7634161,-8.78635 0.5757017,-0.70467 0.8417733,0.008 1.4768167,3.95417 0.3052551,1.89698 0.8734561,4.07326 1.2626689,4.83619 1.2526294,2.45535 4.9281134,3.61655 6.7577714,2.13498 0.803533,-0.65066 0.835991,-0.86493 0.870272,-5.74524 0.01959,-2.78816 0.1442,-5.41023 0.276922,-5.82684 0.273804,-0.85946 1.116855,-1.23017 4.637216,-2.03904 4.26793,-0.98064 5.2139,-1.67599 10.172014,-7.47705 6.406991,-7.49626 9.39793,-10.50316 11.424452,-11.48542 1.551693,-0.7521 2.370038,-0.86278 7.63197,-1.03221 5.622481,-0.18104 5.935914,-0.22926 6.805902,-1.04691 0.501597,-0.47142 0.911991,-1.01781 0.911991,-1.2142 0,-0.19639 0.320546,-1.01923 0.712326,-1.82854 1.075555,-2.2218 1.895806,-2.443 5.725341,-1.54393 3.371368,0.79151 5.853903,0.76599 6.861838,-0.0705 0.576306,-0.47829 0.558264,-2.24438 -0.05236,-5.12492 l -0.231761,-1.0933 3.800356,-0.23253 c 2.090194,-0.12789 5.008621,-0.23529 6.485393,-0.23866 3.976563,-0.009 6.996372,-0.78635 10.9546,-2.81955 8.798583,-4.51953 12.476502,-8.87815 14.520282,-17.20769 0.70096,-2.85683 1.40859,-4.94008 1.8326,-5.39521 0.3799,-0.40777 1.66662,-1.23403 2.85938,-1.83613 6.31339,-3.187 6.85265,-4.8789 3.05453,-9.58354 -0.98546,-1.22067 -1.92614,-2.56416 -2.09039,-2.98554 -0.71036,-1.82235 2.24807,-11.492814 4.80219,-15.697356 1.14881,-1.891146 4.03802,-4.92648 4.68931,-4.92648 0.69697,0 1.91537,1.894173 4.32095,6.717515 3.08057,6.176741 4.21684,7.892441 5.60883,8.469021 0.94516,0.3915 1.24802,0.33333 2.87519,-0.55229 3.22469,-1.75509 4.41231,-4.043964 3.56525,-6.871207 -0.5113,-1.706584 -1.70748,-2.665361 -3.69766,-2.963806 -2.37407,-0.356014 -2.74709,-0.791942 -2.96131,-3.460669 -0.1882,-2.344554 0.0236,-4.312231 0.55406,-5.147433 0.22164,-0.348979 0.7567,-0.240289 2.38128,0.483724 5.57032,2.482479 10.70226,0.943086 12.87338,-3.861531 0.54242,-1.20037 1.657,-4.330326 2.47684,-6.955459 2.64292,-8.462646 3.34761,-10.007345 5.43512,-11.913912 6.29612,-5.750376 21.74209,-17.43102 23.05001,-17.43102 2.45316,0 9.23727,4.248987 16.17173,10.128592 6.84559,5.804261 6.36333,5.527788 9.26347,5.310525 1.36118,-0.101971 2.83285,-0.294965 3.27037,-0.428874 0.70861,-0.21688 0.79549,-0.121329 0.79549,0.874884 0,1.703109 10.89413,242.646446 11.13059,246.173166 l 0.20654,3.08043 -1.48883,0.75955 c -7.53033,3.84168 -18.17391,6.71761 -28.71305,7.75833 l -3.83872,0.37908 -3.40912,2.44596 c -3.96896,2.84765 -8.50837,5.29445 -15.42993,8.31693 l -4.94975,2.16143 -0.23544,3.06395 c -0.23937,3.11499 -0.82035,5.33038 -2.25852,8.61227 l -0.80112,1.82816 -3.90815,1.26342 c -2.14948,0.69488 -5.97486,1.67827 -8.50085,2.1853 l -4.59269,0.92189 -5.05441,-1.13385 c -5.74372,-1.28848 -7.06493,-1.28757 -16.40651,0.0114 -6.47518,0.90039 -10.94255,1.91504 -12.4393,2.82526 -1.1285,0.68628 -1.13414,0.70417 -1.13932,3.61171 -0.006,3.2627 -0.52508,4.74665 -1.60646,4.59094 -0.37754,-0.0544 -1.970224,-0.19432 -3.539297,-0.31101 l -2.852869,-0.21217 -2.980762,2.72953 c -1.639424,1.50125 -4.651306,4.4612 -6.693077,6.57767 l -3.712311,3.84814 -9.899495,0.22601 -9.899494,0.22601 z"
       id="path32"
       transform="matrix(0.26458333,0,0,0.26458333,41.968045,34.589357)" /><path
       style="fill:#ffa4a4;fill-opacity:1;stroke:#ffa4a4;stroke-width:0.5"
       d="M 300.5,227.72577 C 284.55,227.383 258.675,226.83495 243,226.50788 227.325,226.1808 214.39072,225.8047 214.25716,225.67209 213.97354,225.39049 206.80211,69.679285 206.79969,63.75 l -0.002,-4 2.70295,-1.711339 c 2.27675,-1.4415 2.8776,-2.151044 3.81067,-4.5 3.60786,-9.082615 10.62782,-21.024189 15.22572,-25.900271 2.92605,-3.103087 8.91864,-6.216567 21.96261,-11.410784 10.0966,-4.02055 11.91428,-4.250874 23.75,-3.009435 24.36289,2.555404 49,7.845594 49,10.5215 0,0.858104 -2.73687,4.408914 -9.29096,12.054101 -3.08543,3.599074 -6.16918,7.649074 -6.85278,9 -1.8619,3.679459 -4.28399,10.861581 -4.57529,13.566884 l -0.25728,2.389344 6.36315,5.8619 c 7.16744,6.60282 15.29484,13.19097 23.22589,18.82711 L 337.2251,89.25 337.2368,93 c 0.006,2.0625 -0.88778,31.875 -1.98718,66.25 -1.0994,34.375 -1.99916,64.01875 -1.99946,65.875 l -5.4e-4,3.375 -1.875,-0.0755 c -1.03125,-0.0415 -14.925,-0.35595 -30.875,-0.69872 z"
       id="path33"
       transform="matrix(0.26458333,0,0,0.26458333,41.968045,34.589357)" /><path
       style="fill:#ffa4a4;fill-opacity:1;stroke:#ffa4a4;stroke-width:0.5"
       d="m 416.5,376.97143 c -28.05,-16.76892 -51.17542,-30.76626 -51.38982,-31.10519 -0.2144,-0.33893 0.5731,-16.68727 1.75,-36.32963 L 369,273.82321 l 3.5,0.11399 c 1.925,0.0627 31.4,1.34143 65.5,2.84164 34.1,1.50022 68.3,2.98226 76,3.29342 7.7,0.31115 14.16058,0.70653 14.35686,0.8786 0.19627,0.17207 -0.75898,4.92227 -2.12277,10.556 -1.3638,5.63373 -2.95136,12.49314 -3.52791,15.24314 -1.3198,6.29508 -3.65725,12.66841 -7.74655,21.12194 -3.0315,6.26681 -3.4667,6.88357 -8.11453,11.5 -6.63536,6.59055 -21.19237,25.05104 -24.97495,31.67202 -2.41558,4.22822 -4.87481,10.7558 -8.14397,21.61673 -2.91876,9.69679 -4.74931,14.36812 -5.74437,14.65889 -0.265,0.0774 -23.43181,-13.57923 -51.48181,-30.34815 z m 47.46625,7.77837 c 2.66547,-3.49462 3.49123,-7.57108 2.25311,-11.12276 -0.57707,-1.6554 -2.1378,-2.25728 -4.59657,-1.77262 -3.01463,0.59422 -6.74949,6.26155 -6.10489,9.26365 0.55869,2.60194 1.17716,3.40536 3.39744,4.41345 2.89737,1.31552 3.52541,1.21832 5.05091,-0.78172 z"
       id="path34"
       transform="matrix(0.26458333,0,0,0.26458333,41.968045,34.589357)" /><path
       style="fill:#82ff87;fill-opacity:1;stroke:#82ff87;stroke-width:0.5"
       d="m 356.88149,405.56134 c -2.70459,-2.14253 -6.34886,-6.38316 -6.85445,-7.97615 -0.15837,-0.49897 -0.58555,-4.49194 -0.94928,-8.87326 -0.77606,-9.34794 -1.9856,-12.84741 -5.5883,-16.16826 -4.79756,-4.42224 -6.98936,-4.50103 -13.53558,-0.48658 l -4.333,2.65719 -4.31044,-0.0133 c -4.67699,-0.0144 -9.18142,-0.89187 -10.06914,-1.9615 -0.90643,-1.09218 0.99619,-1.95081 10.5087,-4.74246 10.93344,-3.20867 12.84045,-4.03061 13.56082,-5.84484 0.80677,-2.03184 0.67428,-6.74724 -0.23922,-8.51375 -0.88286,-1.70727 -1.68968,-2.13847 -4.00124,-2.13847 -1.96113,0 -2.85068,0.59819 -8.69454,5.84682 -4.14828,3.72575 -5.62582,4.7409 -5.62582,3.86522 0,-0.15837 2.04449,-4.92273 4.54332,-10.58747 7.38604,-16.74387 9.11493,-23.5726 6.50344,-25.68725 -1.01584,-0.82258 -1.27684,-0.84402 -2.51012,-0.20627 -1.86265,0.96321 -5.61428,5.66041 -13.79262,17.26895 -7.22177,10.25074 -10.53231,14.5 -11.29679,14.5 -0.95606,0 -4.16124,-5.89105 -8.51362,-15.64783 -5.10244,-11.4382 -7.50039,-16.04184 -11.02916,-21.17408 l -2.45595,-3.57191 -4.84925,-1.8048 c -10.62539,-3.95456 -19.50142,-5.41854 -32.59925,-5.37678 -5.0875,0.0162 -12.28284,0.36323 -15.98965,0.77113 -3.7068,0.4079 -6.77922,0.69948 -6.82759,0.64795 -0.26696,-0.28439 -3.7557,-82.43741 -3.5112,-82.68191 0.16129,-0.16129 18.35742,0.0777 40.43584,0.53101 83.08189,1.70594 115.14436,2.39469 115.2009,2.47471 0.068,0.0962 -10.14812,172.13691 -10.39335,175.02534 L 359.5,407.63567 Z"
       id="path35"
       transform="matrix(0.26458333,0,0,0.26458333,41.968045,34.589357)" /><path
       style="fill:#b5adff;fill-opacity:1;stroke:#b5adff"
       d="m 443.13936,275.44372 c -40.07336,-1.83242 -73.07962,-3.55065 -73.34726,-3.81828 -0.26763,-0.26764 0.007,-8.12302 0.61065,-17.45641 0.60348,-9.33339 1.09725,-18.76584 1.09725,-20.961 v -3.99119 l -18.59298,-0.73384 -18.59298,-0.73383 0.57476,-7.62459 c 0.31612,-4.19352 1.28464,-33.49958 2.15227,-65.12458 0.86763,-31.625 1.79671,-58.96509 2.06461,-60.755756 l 0.4871,-3.255757 5.70361,3.853077 C 355.68635,101.86051 367.15823,108 369.88345,108 c 3.64637,0 6.46244,-2.01793 12.49481,-8.953499 l 5.11046,-5.875623 1.03867,-10.335439 c 1.69406,-16.856906 3.9184,-30.003455 7.97893,-47.157841 4.36027,-18.420724 8.57268,-32.2993698 10.08759,-33.2356362 1.76618,-1.0915619 4.46028,2.3019357 6.18738,7.7936502 0.91059,2.895414 2.36158,11.114388 3.22443,18.264388 2.09249,17.339291 3.42958,25.510586 4.50238,27.515131 0.7006,1.309086 2.00341,1.575515 6.18964,1.265807 5.85845,-0.433423 10.37682,1.613931 13.25453,6.005866 0.8832,1.347937 3.31486,12.765971 5.60054,26.297741 4.40207,26.061325 6.5931,37.353935 7.92954,40.869045 0.51028,1.34212 6.80505,6.25595 15.37376,12.00107 12.51226,8.38918 14.79228,10.32959 16.56245,14.09547 2.91394,6.19914 4.0289,11.82682 4.05699,20.47736 0.0341,10.50552 3.04801,14.171 9.02275,10.97342 1.51738,-0.81208 2.25112,-0.45937 3.92001,1.88437 2.55006,3.58123 4.4764,12.19717 3.67825,16.45169 -0.5636,3.00427 -0.061,3.69221 8.39648,11.49185 11.49427,10.60027 13.57558,14.15332 15.03771,25.67118 1.31455,10.35526 1.42644,26.38638 0.21987,31.5 l -0.82584,3.5 -6.46239,0.1377 c -3.55431,0.0757 -39.24968,-1.36156 -79.32303,-3.19398 z"
       id="path36"
       transform="matrix(0.26458333,0,0,0.26458333,41.968045,34.589357)" /><path
       style="fill:#b5adff;fill-opacity:1;stroke:#b5adff"
       d="M 415.27681,417.97908 C 411.02905,415.79059 406.47093,414 405.14765,414 c -1.32328,0 -5.01136,1.19279 -8.19572,2.65064 l -5.78976,2.65064 -7.58109,-2.22818 c -4.16959,-1.22549 -10.84358,-3.58527 -14.83108,-5.24395 -6.55291,-2.72582 -7.25,-3.28469 -7.25,-5.81252 0,-3.03704 2.87505,-52.12491 3.26282,-55.70852 0.2107,-1.94714 5.65255,1.04668 48.73718,26.81262 26.675,15.95247 49.54261,29.68143 50.81692,30.50879 3.60226,2.3388 1.13714,4.37048 -5.30288,4.37048 -8.58117,0 -15.54147,1.73488 -24.01561,5.98597 -4.40086,2.20772 -8.90086,4.00462 -10,3.99311 -1.09914,-0.0115 -5.47387,-1.8115 -9.72162,-4 z"
       id="path37"
       transform="matrix(0.26458333,0,0,0.26458333,41.968045,34.589357)" /><path
       style="fill:#ffa4a4;fill-opacity:1;stroke:#ffa4a4;stroke-width:0.176777"
       d="m 416.24523,495.16716 c -2.25116,-2.5547 -3.9974,-5.10117 -5.91708,-8.62863 -2.04699,-3.76142 -3.36503,-6.80384 -7.63952,-17.63434 -1.22706,-3.10907 -2.62202,-6.48177 -3.09991,-7.49489 -0.80463,-1.70582 -0.86869,-1.94143 -0.86627,-3.18599 0.005,-2.55491 0.82332,-4.78581 2.39807,-6.53731 0.95251,-1.05942 0.72952,-1.03842 3.43295,-0.32326 2.82403,0.74707 6.27554,1.11274 16.17506,1.71364 12.05805,0.73193 16.97677,1.45728 19.94174,2.94077 1.524,0.76253 2.13077,1.51616 2.5881,3.21456 0.29232,1.08561 0.2456,4.19984 -0.0928,6.1865 -0.83354,4.89326 -3.41583,11.5787 -6.41448,16.6068 -1.66328,2.78897 -2.41133,3.68904 -5.18123,6.2341 -4.27843,3.93114 -7.41686,5.97929 -11.46002,7.47884 -2.73727,1.01521 -2.42658,1.0611 -3.86459,-0.57079 z"
       id="path38"
       transform="matrix(0.26458333,0,0,0.26458333,41.968045,34.589357)" /><text
       xml:space="preserve"
       style="font-style:normal;font-variant:normal;font-weight:normal;font-stretch:normal;font-size:7.05556px;font-family:'Liberation Sans';-inkscape-font-specification:'Liberation Sans';display:inline;fill:#fff880;fill-opacity:1"
       x="72.866531"
       y="97.063728"
       id="text9"><tspan
         sodipodi:role="line"
         id="tspan9"
         style="font-style:normal;font-variant:normal;font-weight:normal;font-stretch:normal;font-size:7.05556px;font-family:'Liberation Sans';-inkscape-font-specification:'Liberation Sans';fill:#fff880;fill-opacity:1"
         x="0"
         y="0">A</tspan></text><text
       xml:space="preserve"
       style="font-style:normal;font-variant:normal;font-weight:normal;font-stretch:normal;font-size:7.05556px;font-family:'Liberation Sans';-inkscape-font-specification:'Liberation Sans';display:inline;fill:#fff880;fill-opacity:1"
       x="111.33492"
       y="74.647812"
       id="text10"><tspan
         sodipodi:role="line"
         id="tspan10"
         style="fill:#fff880;fill-opacity:1"
         x="0"
         y="0">B</tspan></text><text
       xml:space="preserve"
       style="font-style:normal;font-variant:normal;font-weight:normal;font-stretch:normal;font-size:7.05556px;font-family:'Liberation Sans';-inkscape-font-specification:'Liberation Sans';display:inline;fill:#fff880;fill-opacity:1"
       x="116.79443"
       y="108.05994"
       id="text11"><tspan
         sodipodi:role="line"
         id="tspan11"
         style="fill:#fff880;fill-opacity:1"
         x="116.79443"
         y="108.05994">C</tspan></text><text
       xml:space="preserve"
       style="font-style:normal;font-variant:normal;font-weight:normal;font-stretch:normal;font-size:7.05556px;font-family:'Liberation Sans';-inkscape-font-specification:'Liberation Sans';display:inline;fill:#fff880;fill-opacity:1"
       x="151.29077"
       y="84.475891"
       id="text12"><tspan
         sodipodi:role="line"
         id="tspan12"
         style="fill:#fff880;fill-opacity:1"
         x="0"
         y="0">D</tspan></text><text
       xml:space="preserve"
       style="font-style:normal;font-variant:normal;font-weight:normal;font-stretch:normal;font-size:7.05556px;font-family:'Liberation Sans';-inkscape-font-specification:'Liberation Sans';display:inline;fill:#fff880;fill-opacity:1"
       x="155.09454"
       y="122.0865"
       id="text13"><tspan
         sodipodi:role="line"
         id="tspan13"
         style="fill:#fff880;fill-opacity:1"
         x="0"
         y="0">E</tspan></text><text
       xml:space="preserve"
       style="font-style:normal;font-variant:normal;font-weight:normal;font-stretch:normal;font-size:7.05556px;font-family:'Liberation Sans';-inkscape-font-specification:'Liberation Sans';display:inline;fill:#fff880;fill-opacity:1"
       x="142.37994"
       y="140.82056"
       id="text14"><tspan
         sodipodi:role="line"
         id="tspan14"
         style="fill:#fff880;fill-opacity:1"
         x="0"
         y="0">G</tspan></text><text
       xml:space="preserve"
       style="font-style:normal;font-variant:normal;font-weight:normal;font-stretch:normal;font-size:7.05556px;font-family:'Liberation Sans';-inkscape-font-specification:'Liberation Sans';display:inline;fill:#fff880;fill-opacity:1"
       x="151.5006"
       y="161.62079"
       id="text15"><tspan
         sodipodi:role="line"
         id="tspan15"
         style="fill:#fff880;fill-opacity:1"
         x="0"
         y="0">H</tspan></text><text
       xml:space="preserve"
       style="font-style:normal;font-variant:normal;font-weight:normal;font-stretch:normal;font-size:7.05556px;font-family:'Liberation Sans';-inkscape-font-specification:'Liberation Sans';display:inline;fill:#fff880;fill-opacity:1"
       x="159.99443"
       y="133.03871"
       id="text16"><tspan
         sodipodi:role="line"
         id="tspan16"
         style="fill:#fff880;fill-opacity:1"
         x="0"
         y="0">F</tspan></text></g></svg>
