<?xml version="1.0" encoding="UTF-8" standalone="no"?>
<!-- Created with Inkscape (http://www.inkscape.org/) -->

<svg
   width="61.491955mm"
   height="59.187374mm"
   viewBox="0 0 61.491954 59.187375"
   version="1.1"
   id="svg1"
   inkscape:version="1.3 (0e150ed6c4, 2023-07-21)"
   sodipodi:docname="birds.svg"
   inkscape:export-filename="birds.pdf"
   inkscape:export-xdpi="96"
   inkscape:export-ydpi="96"
   xml:space="preserve"
   xmlns:inkscape="http://www.inkscape.org/namespaces/inkscape"
   xmlns:sodipodi="http://sodipodi.sourceforge.net/DTD/sodipodi-0.dtd"
   xmlns="http://www.w3.org/2000/svg"
   xmlns:svg="http://www.w3.org/2000/svg"><sodipodi:namedview
     id="namedview1"
     pagecolor="#ffffff"
     bordercolor="#999999"
     borderopacity="1"
     inkscape:showpageshadow="2"
     inkscape:pageopacity="0"
     inkscape:pagecheckerboard="0"
     inkscape:deskcolor="#d1d1d1"
     inkscape:document-units="mm"
     inkscape:zoom="1.7930008"
     inkscape:cx="108.1985"
     inkscape:cy="-1.9520348"
     inkscape:window-width="1910"
     inkscape:window-height="2077"
     inkscape:window-x="1920"
     inkscape:window-y="0"
     inkscape:window-maximized="0"
     inkscape:current-layer="layer1" /><defs
     id="defs1"><inkscape:path-effect
       effect="fillet_chamfer"
       id="path-effect5"
       is_visible="true"
       lpeversion="1"
       nodesatellites_param="F,0,0,1,0,1.3229167,0,1 @ F,0,0,1,0,1.3229167,0,1 @ F,0,0,1,0,1.3229167,0,1 @ F,0,0,1,0,1.3229167,0,1"
       radius="5"
       unit="px"
       method="auto"
       mode="F"
       chamfer_steps="1"
       flexible="false"
       use_knot_distance="true"
       apply_no_radius="true"
       apply_with_radius="true"
       only_selected="false"
       hide_knots="false" /><inkscape:path-effect
       effect="fillet_chamfer"
       id="path-effect3"
       is_visible="true"
       lpeversion="1"
       nodesatellites_param="F,0,0,1,0,0,0,1 @ F,0,0,1,0,0,0,1 @ F,0,0,1,0,4.9421178,0,1 @ F,0,0,1,0,5.1628185,0,1"
       radius="0"
       unit="px"
       method="auto"
       mode="F"
       chamfer_steps="1"
       flexible="false"
       use_knot_distance="true"
       apply_no_radius="true"
       apply_with_radius="true"
       only_selected="false"
       hide_knots="false" /><inkscape:path-effect
       effect="fillet_chamfer"
       id="path-effect2"
       is_visible="true"
       lpeversion="1"
       nodesatellites_param="F,0,0,1,0,3.175,0,1 @ F,0,0,1,0,3.175,0,1 @ F,0,0,1,0,3.175,0,1 @ F,0,0,1,0,3.175,0,1"
       radius="12"
       unit="px"
       method="auto"
       mode="F"
       chamfer_steps="1"
       flexible="false"
       use_knot_distance="true"
       apply_no_radius="true"
       apply_with_radius="true"
       only_selected="false"
       hide_knots="false" /><inkscape:path-effect
       effect="fillet_chamfer"
       id="path-effect3-9"
       is_visible="true"
       lpeversion="1"
       nodesatellites_param="F,0,0,1,0,0,0,1 @ F,0,0,1,0,0,0,1 @ F,0,0,1,0,4.9421178,0,1 @ F,0,0,1,0,5.1628185,0,1"
       radius="0"
       unit="px"
       method="auto"
       mode="F"
       chamfer_steps="1"
       flexible="false"
       use_knot_distance="true"
       apply_no_radius="true"
       apply_with_radius="true"
       only_selected="false"
       hide_knots="false" /></defs><g
     inkscape:label="Layer 1"
     inkscape:groupmode="layer"
     id="layer1"
     transform="translate(-110.61398,-93.874025)"><g
       id="g29"
       transform="matrix(0.62915915,0,0,0.6352498,78.036936,111.27955)"><g
         id="g28"><path
           style="fill:#ffce46;fill-opacity:1;stroke:#000000;stroke-width:1;stroke-dasharray:none;stroke-opacity:1"
           d="m 69.724894,35.949286 c -2.94349,-3.411936 -6.770884,-9.522533 1.616323,-16.776334 7.691131,-6.485942 14.317416,-3.624737 18.950011,0.334412 5.782335,6.821063 3.390242,12.650227 -0.334409,16.943541 -1.366866,1.191875 -2.051398,2.15069 -3.678534,1.672057 l -0.111469,3.344122 c 7.141299,4.74046 11.704448,3.752939 16.720594,0.111469 0.33266,-1.68386 1.6726,-2.514461 1.11471,-3.901472 1.8752,-2.594055 3.77326,-2.353556 5.46206,10e-7 -2.00803,7.592909 3.86318,12.559405 -6.91118,23.074423 -9.846359,4.592578 -23.985729,8.053464 -33.664137,-1.894999 -1.77084,-3.567061 -2.355852,-8.137358 2.006473,-13.933832 2.065826,-2.148344 0.703025,-1.48838 2.173676,-3.12118 1.211278,-1.924031 0.863925,-2.80536 0,-3.790003 -2.011278,-1.136279 -1.452909,-0.496301 -3.344118,-2.062205 z"
           id="path27"
           sodipodi:nodetypes="ccccccccccccccc" /><ellipse
           style="fill:#000000;fill-opacity:1;stroke:#000000;stroke-width:1;stroke-dasharray:none;stroke-opacity:1"
           id="path28"
           cx="74.183723"
           cy="24.021927"
           rx="1.3376478"
           ry="1.2261771" /></g><path
         style="fill:#cb0000;fill-opacity:1;stroke:#000000;stroke-width:1;stroke-dasharray:none;stroke-opacity:1"
         d="m 67.774157,23.325234 c -0.569096,1.004877 -1.13966,2.766714 -1.226176,3.706399 l -0.167208,2.591693 c -4.553569,-1.235759 -9.479048,-1.196396 -13.571554,-4.012943 -0.568632,-0.987361 -0.985425,-1.952226 0.418016,-2.647428 4.663724,-0.610949 9.512399,-0.509963 14.546922,0.362279 z"
         id="path29"
         sodipodi:nodetypes="cccccc" /></g><path
       style="fill:#ff2a2a;stroke-width:1"
       d="m 131.45306,105.59102 8.18497,-8.140728 1.637,1.017593 0.48667,1.061833 z"
       id="path1" /><path
       style="fill:#000000;fill-opacity:1;stroke:#fad286;stroke-width:0.4;stroke-dasharray:none;stroke-opacity:1"
       d="m 150.07941,117.42605 c 5.67964,9.99034 15.72056,15.87775 17.80784,22.76308 0.46417,-2.71331 0.89457,-5.43177 4.004,-7.74254 -1.06928,-7.55356 -4.77891,-13.51295 -8.9371,-19.20151"
       id="path3"
       sodipodi:nodetypes="cccc" /><path
       style="fill:#f2f2f2;fill-opacity:1;stroke:#fad286;stroke-width:0.4;stroke-dasharray:none;stroke-opacity:1"
       d="m 139.63803,97.450292 1.59275,-2.43337 c 1.29715,-0.898522 2.62575,-1.136535 3.98188,-0.796375 2.18557,0.999976 2.5457,2.410677 2.38913,3.937635 -1.27227,2.636988 -2.70937,4.280688 -3.36248,6.547978 3.65529,-0.8048 8.82967,0.26602 13.07384,3.40672 3.10732,1.38306 3.67556,3.06402 5.641,5.1322 0.24039,0.0874 2.26013,7.65851 2.92004,7.91952 1.46716,0.5803 -8.82233,-1.4725 -15.79478,-3.73855 -0.40265,-4.04177 -3.43299,-2.99822 -6.17191,-4.20309 0.46264,3.85056 -0.30901,4.59079 -0.99548,7.45496 -4.48738,-3.1309 -5.71586,-7.32592 -4.42431,-12.34382 0.81627,-3.30928 2.56453,-5.97334 4.10355,-8.78226 l -0.82956,-0.02212 -0.48667,-1.061831 -1.637,-1.017593"
       id="path2"
       sodipodi:nodetypes="cccccccscccccccc" /><ellipse
       style="fill:#000000;fill-opacity:1;stroke:#fad286;stroke-width:0.4;stroke-dasharray:none;stroke-opacity:1"
       id="path4"
       cx="142.4949"
       cy="96.454529"
       rx="0.68475676"
       ry="0.61954182" /><path
       style="fill:#ff2a2a;fill-opacity:1;stroke:#fad286;stroke-width:0.4;stroke-dasharray:none;stroke-opacity:1"
       d="m 151.86629,126.37513 1.19996,23.2426 c -1.13844,0.63858 -2.84979,0.97923 -4.59113,1.3043 -0.22984,0.20012 -1.29068,0.59517 0.31303,0.3652 l 1.42322,-0.20868 -1.0841,0.91301 c -0.5744,0.58733 -0.94583,1.05074 0.77827,0.23477 l 2.10524,-1.1217 3.27278,-0.91301 -0.80867,-1.01735 -1.4869,-22.95565 c -0.49042,-0.18088 -0.85249,-0.10504 -1.1217,0.15651 z"
       id="path5"
       sodipodi:nodetypes="cccccccccccc" /><path
       style="fill:#ff2a2a;fill-opacity:1;stroke:#fad286;stroke-width:0.4;stroke-dasharray:none;stroke-opacity:1"
       d="m 152.01078,151.10463 c -0.4079,0.73867 -0.42944,1.13927 0.53375,0.67824 l 3.08324,-0.99127 c 0,0 -1.67601,1.08527 -1.80503,1.17387 -0.84102,0.57752 0.53886,0.63399 1.40865,0.13043 l 1.12169,-1.43473 c 0,0 2.55231,0.4467 2.73903,0.3652 0.83665,-0.36518 -0.0704,-0.84609 -0.33912,-0.78258 0,0 -1.64341,-0.23477 -1.6695,-0.49563 -0.0261,-0.26086 -0.96518,-22.77305 -0.96518,-22.77305 -0.67309,-0.40509 -0.78168,-0.16563 -1.17387,0.0783 l 0.91301,22.85131 -0.57389,0.28694"
       id="path6"
       sodipodi:nodetypes="cccsccscscccc" /><path
       style="fill:none;stroke:#fad286;stroke-width:0.4;stroke-dasharray:none;stroke-opacity:1"
       d="m 143.75525,117.68488 c 0.537,0.0245 0.6278,-0.30788 1.62323,0.0834 1.6365,3.965 3.67362,7.09538 6.48781,8.60685"
       id="path7"
       sodipodi:nodetypes="ccc" /><path
       style="fill:none;stroke:#fad286;stroke-width:0.4;stroke-dasharray:none;stroke-opacity:1"
       d="m 152.98799,126.21862 c 0.64578,0.15085 1.28717,0.21391 1.95645,0.83479"
       id="path8"
       sodipodi:nodetypes="cc" /><path
       style="fill:none;stroke:#fad286;stroke-width:0.4;stroke-dasharray:none;stroke-opacity:1"
       d="m 156.11831,126.97511 1.44818,0.12972"
       id="path9"
       sodipodi:nodetypes="cc" /><path
       style="fill:#f3f3f3;fill-opacity:1;stroke:#fad286;stroke-width:0.0745267;stroke-dasharray:none;stroke-opacity:1"
       d="m 253.01338,476.15805 -1.35565,-0.13035 -0.61621,-0.30522 c -0.77456,-0.38365 -1.21003,-0.50593 -1.8017,-0.50593 -0.66632,0 -1.14361,0.1694 -1.8609,0.66048 l -0.32629,0.22339 -0.4827,-0.36176 c -0.59741,-0.44775 -1.02296,-0.70994 -1.69045,-1.04155 -1.07908,-0.5361 -1.89821,-0.79945 -3.84511,-1.2362 -0.66427,-0.14902 -1.37578,-0.32358 -1.58113,-0.38792 -0.59202,-0.18549 -1.14729,-0.27203 -1.73949,-0.2711 -0.84462,10e-4 -1.50155,0.1798 -2.18587,0.59388 l -0.30573,0.185 -0.70485,-0.42065 c -4.796,-2.86224 -9.11105,-7.07754 -13.1691,-12.86469 -3.36567,-4.79976 -6.70808,-11.1222 -9.70294,-18.3539 -0.20617,-0.49782 -0.22307,-0.52178 -0.44225,-0.6268 -0.35729,-0.17117 -1.49373,-0.53636 -2.06336,-0.66303 -0.43675,-0.0971 -0.65239,-0.11482 -1.3803,-0.11326 -0.76701,0.002 -0.92744,0.0171 -1.44661,0.13909 -0.32115,0.0755 -0.58955,0.13011 -0.59643,0.12139 -0.007,-0.009 0.0704,-0.431 0.17168,-0.9384 0.73614,-3.68718 0.86331,-7.50654 0.41736,-12.53535 -0.0409,-0.46092 -0.0873,-0.94253 -0.10325,-1.07024 l -0.0289,-0.2322 0.31245,0.12369 c 0.60103,0.23792 2.19566,0.7163 3.36884,1.01063 0.65071,0.16325 2.34773,0.52981 3.77116,0.81456 1.42344,0.28476 2.9832,0.60658 3.46615,0.71517 3.48767,0.78413 5.5567,1.72218 7.13628,3.23541 0.92229,0.88355 1.41714,1.56885 2.02002,2.79743 0.21287,0.43381 0.48852,1.08711 0.61254,1.45178 0.4125,1.21287 0.77756,2.93067 0.91196,4.29124 0.0742,0.75136 0.0917,0.82885 0.19378,0.86126 0.0509,0.0162 0.28148,0.35811 0.52545,0.77919 6.07557,10.48621 14.32833,21.24296 25.47138,33.19973 l 0.93032,0.99825 -0.26223,-0.006 c -0.14423,-0.003 -0.87228,-0.065 -1.61788,-0.13668 z"
       id="path10"
       transform="matrix(0.26458333,0,0,0.26458333,89.599083,0.82335642)" /><path
       style="fill:#f3f3f3;fill-opacity:1;stroke:#fad286;stroke-width:0.4;stroke-dasharray:none;stroke-opacity:1"
       d="m 144.23931,104.70616 c -0.90029,3.36539 -1.4938,6.52626 -0.33181,8.5168"
       id="path11"
       sodipodi:nodetypes="cc" /></g></svg>
